<svg xmlns="http://www.w3.org/2000/svg" width="66" height="65" viewBox="0 0 66 65" fill="none"><rect x="0.200195" width="65" height="65" rx="12.6549" fill="#ED8244"></rect><path fill-rule="evenodd" clip-rule="evenodd" d="M23.7336 26.3336C23.7336 24.1245 25.5245 22.3336 27.7336 22.3336H33.067C34.5397 22.3336 35.7336 23.5275 35.7336 25.0003H41.8101C43.6717 25.0003 44.9605 26.8595 44.3072 28.6027L42.9091 32.3336L44.3072 36.0645C44.9605 37.8078 43.6717 39.667 41.8101 39.667H35.7336C34.2609 39.667 33.067 38.473 33.067 37.0003H26.4003L26.4003 43.667H23.7336V26.3336ZM33.067 34.3336V25.0003H27.7336C26.9973 25.0003 26.4003 25.5972 26.4003 26.3336V34.3336H33.067ZM35.7336 27.667V37.0003L41.8101 37.0003L40.412 33.2694C40.1859 32.666 40.1859 32.0012 40.412 31.3979L41.8101 27.667H35.7336Z" fill="white"></path></svg>