<svg xmlns="http://www.w3.org/2000/svg" width="66" height="65" viewBox="0 0 66 65" fill="none"><rect x="0.600098" width="65" height="65" rx="12.6549" fill="#BB5FEC"></rect><path fill-rule="evenodd" clip-rule="evenodd" d="M27.35 27C27.35 23.5482 30.1482 20.75 33.6 20.75C37.0518 20.75 39.85 23.5482 39.85 27C39.85 30.4518 37.0518 33.25 33.6 33.25C30.1482 33.25 27.35 30.4518 27.35 27ZM33.6 23.25C31.5289 23.25 29.85 24.9289 29.85 27C29.85 29.0711 31.5289 30.75 33.6 30.75C35.6711 30.75 37.35 29.0711 37.35 27C37.35 24.9289 35.6711 23.25 33.6 23.25Z" fill="white"></path><path d="M27.5337 33.3709C24.5424 34.8142 22.2205 37.2979 21.1686 40.3417L20.7603 41.5232L23.1231 42.3398L23.5314 41.1584C24.4369 38.5385 26.602 36.3652 29.4315 35.2687L27.5337 33.3709Z" fill="white"></path><path d="M37.6776 35.234C40.5516 36.3188 42.7534 38.5105 43.6686 41.1584L44.0769 42.3398L46.4397 41.5232L46.0314 40.3417C44.9695 37.2692 42.6136 34.7673 39.5813 33.3303L37.6776 35.234Z" fill="white"></path><path d="M32.35 37.625L31.1 34.5H36.1L34.85 37.625L36.1 42H31.1L32.35 37.625Z" fill="white"></path></svg>