<svg xmlns="http://www.w3.org/2000/svg" width="66" height="65" viewBox="0 0 66 65" fill="none"><rect x="0.399902" width="65" height="65" rx="12.6549" fill="#FA3E70"></rect><path fill-rule="evenodd" clip-rule="evenodd" d="M45.8999 32C45.8999 25.0964 40.3035 19.5 33.3999 19.5C26.4963 19.5 20.8999 25.0964 20.8999 32C20.8999 38.9036 26.4963 44.5 33.3999 44.5C40.3035 44.5 45.8999 38.9036 45.8999 32ZM28.4246 33.25C28.5544 36.5185 29.1878 39.4166 30.1281 41.4525C26.5908 40.2283 23.9542 37.0745 23.4773 33.25H28.4246ZM30.9267 33.25C31.0428 35.9375 31.526 38.2615 32.1856 39.9104C32.5682 40.8671 32.9614 41.4735 33.2701 41.7999C33.3205 41.8532 33.3638 41.8944 33.3999 41.9259C33.436 41.8944 33.4793 41.8532 33.5297 41.7999C33.8384 41.4735 34.2316 40.8671 34.6142 39.9104C35.2738 38.2615 35.757 35.9375 35.8731 33.25H30.9267ZM35.8731 30.75H30.9267C31.0428 28.0625 31.526 25.7385 32.1856 24.0896C32.5682 23.1329 32.9614 22.5265 33.2701 22.2001C33.3205 22.1468 33.3638 22.1056 33.3999 22.0741C33.436 22.1056 33.4793 22.1468 33.5297 22.2001C33.8384 22.5265 34.2316 23.1329 34.6142 24.0896C35.2738 25.7385 35.757 28.0625 35.8731 30.75ZM38.3752 33.25C38.2454 36.5185 37.612 39.4166 36.6717 41.4525C40.2091 40.2283 42.8456 37.0745 43.3225 33.25H38.3752ZM43.3225 30.75H38.3752C38.2454 27.4815 37.612 24.5834 36.6717 22.5475C40.2091 23.7717 42.8456 26.9255 43.3225 30.75ZM28.4246 30.75H23.4773C23.9542 26.9255 26.5908 23.7717 30.1281 22.5475C29.1878 24.5834 28.5544 27.4815 28.4246 30.75Z" fill="white"></path></svg>