<svg xmlns="http://www.w3.org/2000/svg" width="65" height="65" viewBox="0 0 65 65" fill="none"><rect width="65" height="65" rx="12.6549" fill="#1E6DEB"></rect><path d="M31.5634 20.7836C32.4588 20.2952 33.5411 20.2952 34.4365 20.7836L46.0565 27.1217C46.7515 27.5008 46.7513 28.4988 46.0562 28.8777L42.3333 30.9067V37.7197C42.3333 38.4514 41.9337 39.1247 41.2913 39.4753L34.437 43.2158C33.5413 43.7046 32.4586 43.7046 31.5629 43.2158L24.7086 39.4753C24.0662 39.1247 23.6666 38.4514 23.6666 37.7197V30.9067L21 29.4533V38.6667H18.3333V29.1873C18.3333 28.4554 18.7331 27.7819 19.3756 27.4315L31.5634 20.7836ZM23.9066 28L33 32.96L42.0933 28L33 23.04L23.9066 28ZM26.3333 37.32L33 40.96L39.6666 37.32V32.36L34.4376 35.215C33.5416 35.7043 32.4583 35.7043 31.5623 35.215L26.3333 32.36V37.32Z" fill="white"></path></svg>